<?xml version="1.0" encoding="UTF-8" standalone="yes"?>
<svg version="1.2" width="100%" viewBox="0 0 1170 1170" xml:space="preserve" baseProfile="tiny-ps" xmlns="http://www.w3.org/2000/svg">
  <title>Potato_tech_dev</title>
  <path fill="#050505" stroke="none" d="&#xA;M618.000000,1171.000000 &#xA;&#x9;C413.500000,1171.000000 209.500000,1170.988159 5.500049,1171.093750 &#xA;&#x9;C1.750759,1171.095703 0.906042,1170.249023 0.907004,1166.500000 &#xA;&#x9;C1.006360,779.500000 1.006360,392.500000 0.907004,5.500024 &#xA;&#x9;C0.906042,1.750929 1.750928,0.906043 5.500024,0.907006 &#xA;&#x9;C392.500000,1.006345 779.500000,1.006345 1166.500000,0.907006 &#xA;&#x9;C1170.249023,0.906044 1171.093994,1.750928 1171.093018,5.500023 &#xA;&#x9;C1170.993774,392.500000 1170.993652,779.500000 1171.093018,1166.500000 &#xA;&#x9;C1171.093994,1170.249023 1170.249268,1171.096069 1166.500000,1171.093872 &#xA;&#x9;C983.833313,1170.986694 801.166687,1171.000000 618.000000,1171.000000 &#xA;z"/>
  <path fill="#E9A548" stroke="none" d="&#xA;M947.182556,586.548706 &#xA;&#x9;C946.688293,587.221985 946.552002,587.734985 946.422058,588.650513 &#xA;&#x9;C948.509277,597.769958 947.244080,606.625427 947.465027,615.414795 &#xA;&#x9;C947.935791,634.138489 943.539612,652.135559 939.368713,670.216492 &#xA;&#x9;C936.911926,680.866882 934.029968,691.327026 930.544189,701.673157 &#xA;&#x9;C927.020813,712.131042 921.564026,721.519348 915.592407,730.672913 &#xA;&#x9;C904.917664,747.035828 892.740967,762.115723 877.738403,774.763672 &#xA;&#x9;C863.604370,786.679382 848.595032,797.293457 832.149902,805.842102 &#xA;&#x9;C819.279724,812.532349 805.899658,817.629028 791.546326,820.059753 &#xA;&#x9;C788.783630,820.527588 786.055725,821.291077 783.325134,821.944580 &#xA;&#x9;C778.971252,822.986633 778.327515,824.911438 780.758667,828.811951 &#xA;&#x9;C788.483582,841.205383 796.185852,853.613647 803.917114,866.002502 &#xA;&#x9;C814.900879,883.602905 825.783325,901.277161 835.959656,919.366333 &#xA;&#x9;C837.243408,921.648254 838.879028,923.300171 841.220825,924.436890 &#xA;&#x9;C847.061279,927.271973 849.753052,931.992188 849.514465,938.492554 &#xA;&#x9;C849.283630,944.780762 846.158081,949.420471 840.694824,951.859436 &#xA;&#x9;C835.286255,954.273926 830.047607,952.673950 825.438721,948.959534 &#xA;&#x9;C819.373840,944.071716 815.348755,937.506531 810.956360,931.292847 &#xA;&#x9;C801.748596,918.267456 793.427490,904.647583 784.699829,891.302856 &#xA;&#x9;C771.706055,871.435242 759.440430,851.167847 748.211060,830.270630 &#xA;&#x9;C746.637817,827.343018 744.673828,826.595947 741.379883,827.252686 &#xA;&#x9;C740.618408,827.356873 740.226074,827.361084 739.539856,827.378784 &#xA;&#x9;C732.806519,829.651672 726.075439,828.381775 719.497986,828.862793 &#xA;&#x9;C704.296326,829.974548 688.988892,830.263428 673.809143,829.224304 &#xA;&#x9;C657.092041,828.079956 640.342285,829.486755 623.204468,827.612061 &#xA;&#x9;C620.445923,827.421204 618.156189,827.379089 615.434448,827.333435 &#xA;&#x9;C606.928589,826.790344 598.835388,826.802490 590.752747,826.598328 &#xA;&#x9;C572.639160,826.140625 554.602722,824.526245 536.546021,823.239807 &#xA;&#x9;C530.569153,822.813904 524.575256,823.473877 518.616333,822.525696 &#xA;&#x9;C511.014709,821.316162 503.285187,821.577454 495.190674,820.621033 &#xA;&#x9;C493.097137,820.419312 491.456970,820.360291 489.406036,820.285461 &#xA;&#x9;C476.820526,819.437317 464.733429,817.511597 452.491241,817.457153 &#xA;&#x9;C449.698395,817.444641 446.950592,816.525024 444.151428,816.172241 &#xA;&#x9;C441.661194,815.858398 440.378876,816.856506 439.828705,819.172546 &#xA;&#x9;C436.683716,832.411072 430.737549,844.647766 426.073792,857.339905 &#xA;&#x9;C419.729889,874.604614 412.820496,891.657898 406.216583,908.825928 &#xA;&#x9;C404.782166,912.554871 403.031189,916.128052 401.350800,919.731079 &#xA;&#x9;C399.869019,922.908325 399.064148,926.152893 398.305054,929.576721 &#xA;&#x9;C396.902771,935.901672 391.950470,939.584473 386.040405,941.491455 &#xA;&#x9;C380.570862,943.256165 374.755585,941.006470 371.563660,936.172302 &#xA;&#x9;C368.671661,931.792603 366.362518,927.047180 369.245728,921.740845 &#xA;&#x9;C370.981110,918.546997 371.368256,915.302246 371.064056,911.756165 &#xA;&#x9;C370.760803,908.221191 372.115021,904.873047 373.346405,901.677856 &#xA;&#x9;C378.946014,887.147888 384.941589,872.792114 391.482483,858.639221 &#xA;&#x9;C397.739594,845.100464 404.290436,831.706726 410.598083,818.195862 &#xA;&#x9;C412.697601,813.698669 411.454498,811.676636 406.632843,811.012634 &#xA;&#x9;C379.199097,807.234070 352.239990,801.703186 326.778748,790.236084 &#xA;&#x9;C311.636230,783.416260 296.218018,776.810669 283.765533,765.713745 &#xA;&#x9;C262.436951,746.707031 241.009949,727.689270 222.939529,705.382568 &#xA;&#x9;C214.455002,694.908997 206.881226,683.696472 201.242371,671.454407 &#xA;&#x9;C197.873901,664.141235 195.193939,656.413269 193.088699,648.565735 &#xA;&#x9;C191.789658,643.723511 190.664642,643.253601 186.842300,646.568726 &#xA;&#x9;C177.662506,654.530273 169.150055,663.204895 160.371643,671.597046 &#xA;&#x9;C147.410736,683.987793 134.476456,696.408936 121.104698,708.370850 &#xA;&#x9;C117.605598,711.501160 114.070045,714.731628 111.637947,719.087097 &#xA;&#x9;C107.944443,725.701477 100.299934,728.543518 93.803940,726.515625 &#xA;&#x9;C87.791687,724.638794 82.797997,717.629028 83.028709,711.170105 &#xA;&#x9;C83.197403,706.447815 85.228096,702.271179 88.683952,699.345093 &#xA;&#x9;C96.455482,692.764771 102.766762,684.772644 110.337982,677.978760 &#xA;&#x9;C124.568703,665.208984 138.294083,651.863586 151.836288,638.368469 &#xA;&#x9;C160.796722,629.439270 169.761551,620.443420 179.969849,613.118225 &#xA;&#x9;C186.051331,608.754333 188.699646,604.389587 188.918808,597.029907 &#xA;&#x9;C189.047989,592.691162 188.660980,588.030151 190.379822,583.373901 &#xA;&#x9;C190.560196,582.363220 190.588760,581.699646 190.626953,580.703979 &#xA;&#x9;C193.670197,556.078674 200.930847,532.866577 209.630493,510.163086 &#xA;&#x9;C218.035980,488.227234 229.681885,467.959015 245.284485,450.227814 &#xA;&#x9;C254.800629,439.413330 266.715393,431.453217 278.597809,423.512695 &#xA;&#x9;C291.013489,415.215851 303.949829,407.811096 317.499664,401.565948 &#xA;&#x9;C330.479858,395.583405 344.086731,391.794830 358.336548,389.826660 &#xA;&#x9;C368.069489,388.482391 378.129089,388.381378 387.392883,384.207947 &#xA;&#x9;C389.813721,383.117340 392.679169,384.264221 394.044739,384.093353 &#xA;&#x9;C387.464722,383.186005 380.360596,381.058838 376.398376,373.333862 &#xA;&#x9;C375.598206,371.773834 374.203186,370.939453 372.746002,370.075500 &#xA;&#x9;C364.168945,364.990204 362.593658,355.039154 368.978271,346.451447 &#xA;&#x9;C377.316772,335.235596 384.904633,323.477020 393.237549,312.259827 &#xA;&#x9;C409.281952,290.662109 424.971130,268.762482 442.882172,248.646515 &#xA;&#x9;C446.955017,244.072281 451.242889,239.183029 457.598633,237.121674 &#xA;&#x9;C463.919769,235.071533 472.849213,238.565689 475.817932,244.512604 &#xA;&#x9;C478.259094,249.402664 480.352753,254.481384 483.757843,258.845215 &#xA;&#x9;C487.208435,263.267365 488.033356,263.666718 491.998901,260.021515 &#xA;&#x9;C501.065582,251.687286 510.727570,244.157761 520.838501,237.155334 &#xA;&#x9;C531.490662,229.778061 542.120056,222.431030 554.479492,218.017838 &#xA;&#x9;C562.359070,215.204254 568.519958,216.546219 573.902344,223.360825 &#xA;&#x9;C580.911743,232.235260 586.515564,242.103271 593.118713,251.276443 &#xA;&#x9;C595.774597,254.966034 598.817017,258.195892 602.422791,260.940765 &#xA;&#x9;C605.704529,263.438904 609.027954,263.550964 612.688416,261.695557 &#xA;&#x9;C616.964417,259.528137 620.313354,256.227570 623.240173,252.671005 &#xA;&#x9;C630.288330,244.106293 639.810486,238.841888 648.974487,233.298218 &#xA;&#x9;C668.973877,221.199753 689.681946,210.318680 710.550232,199.796707 &#xA;&#x9;C719.094482,195.488602 727.774963,191.256378 736.886414,188.257538 &#xA;&#x9;C744.801086,185.652588 751.318787,188.852737 757.224243,194.315186 &#xA;&#x9;C763.122437,199.770966 764.607239,207.037979 765.206238,214.184845 &#xA;&#x9;C765.992920,223.571991 767.815247,232.838181 768.246521,242.622375 &#xA;&#x9;C768.384338,243.668701 768.424805,244.350616 768.485474,245.373505 &#xA;&#x9;C769.707458,254.249466 770.348633,262.852020 770.894897,271.433868 &#xA;&#x9;C771.579468,282.190216 773.195007,292.786682 775.075012,303.359192 &#xA;&#x9;C775.874878,307.857086 778.033020,311.897858 780.971191,315.327820 &#xA;&#x9;C785.447693,320.553589 787.598572,326.478241 788.709778,333.253448 &#xA;&#x9;C789.660034,339.047577 790.814087,344.628906 789.011841,350.380341 &#xA;&#x9;C786.160645,359.479431 777.735779,364.050934 768.604370,361.464264 &#xA;&#x9;C768.121643,361.327484 767.697693,361.036407 767.229431,360.880981 &#xA;&#x9;C765.578125,360.332855 763.758728,359.952820 762.873047,361.880829 &#xA;&#x9;C761.876343,364.050507 763.263977,365.325836 765.191101,366.044312 &#xA;&#x9;C770.006470,367.839600 774.936157,369.316925 779.754456,371.092834 &#xA;&#x9;C804.850525,380.342651 829.593689,390.294586 850.450012,407.736603 &#xA;&#x9;C857.516663,413.646423 863.272583,420.761871 868.932678,427.943665 &#xA;&#x9;C880.663086,442.828064 891.221741,458.532135 901.123535,474.677948 &#xA;&#x9;C912.916870,493.908142 925.370789,512.762085 934.490173,533.518066 &#xA;&#x9;C936.630005,538.388245 938.255127,543.434692 940.126404,548.394958 &#xA;&#x9;C941.141296,551.085205 942.878174,552.031738 945.643799,552.570068 &#xA;&#x9;C951.202637,553.652100 956.475159,554.341980 962.197754,552.667542 &#xA;&#x9;C969.045654,550.663940 975.181641,554.248291 980.915649,557.457275 &#xA;&#x9;C993.550171,564.528137 1007.005920,569.717773 1020.364380,575.101135 &#xA;&#x9;C1026.519043,577.581421 1031.351318,581.878967 1036.839722,585.260071 &#xA;&#x9;C1038.314819,586.168762 1039.561279,588.076843 1041.670288,586.808044 &#xA;&#x9;C1043.552124,585.676147 1042.575439,583.880127 1042.546997,582.279114 &#xA;&#x9;C1042.322266,569.645752 1041.473267,557.029297 1039.846680,544.528076 &#xA;&#x9;C1038.463989,533.899780 1036.601562,523.296814 1034.373413,512.795044 &#xA;&#x9;C1032.555542,504.226654 1031.317383,495.560883 1029.601562,486.974854 &#xA;&#x9;C1027.695190,477.435364 1026.926514,467.715790 1026.441772,457.992188 &#xA;&#x9;C1026.397949,457.112946 1026.059082,456.393127 1025.077759,455.605042 &#xA;&#x9;C1021.793518,455.358337 1018.845642,455.313477 1015.450806,455.261597 &#xA;&#x9;C1007.599426,454.304657 1000.279846,453.112579 993.653503,449.302948 &#xA;&#x9;C984.364746,443.962646 978.896240,435.647827 975.535278,425.830292 &#xA;&#x9;C971.976013,415.433441 973.972839,404.882080 974.805115,394.283081 &#xA;&#x9;C975.701416,382.868652 979.462341,372.738464 985.541809,363.252686 &#xA;&#x9;C986.568848,361.650208 986.420593,359.839050 986.220215,357.942963 &#xA;&#x9;C985.055908,346.925812 992.580872,338.609741 1003.609558,338.492737 &#xA;&#x9;C1011.537292,338.408630 1019.317566,336.275330 1027.374146,337.427765 &#xA;&#x9;C1047.608887,340.322205 1065.659912,347.584198 1078.432861,364.161346 &#xA;&#x9;C1087.374390,375.765900 1091.376465,389.051971 1087.483032,403.913574 &#xA;&#x9;C1083.797852,417.979584 1076.156006,429.983673 1068.016968,441.720001 &#xA;&#x9;C1065.137451,445.872162 1060.817383,448.571320 1056.574463,451.867676 &#xA;&#x9;C1056.326416,453.178986 1056.312622,454.158691 1056.307007,455.505859 &#xA;&#x9;C1058.458984,469.224182 1059.435547,482.712555 1061.103394,496.116486 &#xA;&#x9;C1061.766602,501.446045 1062.706665,506.747101 1063.199585,512.553223 &#xA;&#x9;C1063.315430,513.680664 1063.340820,514.370117 1063.389404,515.403809 &#xA;&#x9;C1065.015137,523.018433 1065.607178,530.422241 1066.351440,537.807922 &#xA;&#x9;C1068.070679,554.868774 1069.451294,571.953735 1070.227905,589.537415 &#xA;&#x9;C1070.343506,590.678467 1070.356567,591.373291 1070.383667,592.415222 &#xA;&#x9;C1071.168213,594.646118 1071.386841,596.697144 1071.393188,598.639404 &#xA;&#x9;C1071.435303,611.381958 1072.638550,624.073120 1073.652832,636.734253 &#xA;&#x9;C1074.951294,652.942993 1074.591553,669.199219 1076.197144,685.412659 &#xA;&#x9;C1077.505005,698.618774 1076.469360,712.029236 1076.494263,725.348999 &#xA;&#x9;C1076.510010,733.677002 1076.379639,742.007996 1076.536621,750.332153 &#xA;&#x9;C1076.625610,755.056396 1075.224243,759.506653 1074.372803,764.007263 &#xA;&#x9;C1073.249878,769.944092 1067.896362,773.350830 1062.309326,772.853638 &#xA;&#x9;C1055.516602,772.249146 1051.345947,768.065308 1050.456299,761.577698 &#xA;&#x9;C1047.320801,738.710083 1047.899170,715.666748 1046.744629,692.705750 &#xA;&#x9;C1045.537109,668.695251 1046.074097,644.666016 1044.513184,620.243042 &#xA;&#x9;C1044.331543,619.804199 1044.276123,619.728210 1044.242310,619.695496 &#xA;&#x9;C1038.300049,618.488586 1033.643311,615.301880 1029.469116,611.042419 &#xA;&#x9;C1023.165771,604.610168 1014.903503,601.443909 1006.827881,597.948853 &#xA;&#x9;C1001.513672,595.648804 996.042847,595.382812 990.418884,595.479553 &#xA;&#x9;C983.410461,595.600098 976.830627,593.097717 970.031250,591.928345 &#xA;&#x9;C962.395630,590.615234 955.060913,588.136719 947.182556,586.548706 &#xA;z"/>
  <path fill="#735427" stroke="none" d="&#xA;M190.264053,583.295044 &#xA;&#x9;C191.638412,590.894592 190.068848,598.584229 188.950165,606.299500 &#xA;&#x9;C188.749939,607.680420 187.822372,608.700439 186.709213,609.495667 &#xA;&#x9;C165.874557,624.379395 148.650070,643.226868 130.282120,660.822571 &#xA;&#x9;C122.712402,668.074097 115.081940,675.270142 107.274536,682.263062 &#xA;&#x9;C100.566078,688.271729 94.664085,695.070740 88.434814,701.513306 &#xA;&#x9;C78.717949,711.562927 86.519104,722.756165 94.827980,725.389465 &#xA;&#x9;C99.867935,726.986694 105.118195,725.712341 108.016411,721.866028 &#xA;&#x9;C121.664177,703.753723 139.990311,690.471313 155.793930,674.607727 &#xA;&#x9;C165.773499,664.590271 176.184860,655.002441 186.421188,645.241455 &#xA;&#x9;C191.107147,640.773010 191.955948,640.911560 193.670059,647.079285 &#xA;&#x9;C202.150955,677.595276 219.524139,702.512390 241.729828,724.546265 &#xA;&#x9;C255.205124,737.917358 268.987305,750.951050 283.004120,763.740540 &#xA;&#x9;C292.956055,772.821045 304.963898,778.720093 316.916351,784.502258 &#xA;&#x9;C335.035706,793.267639 353.788452,800.214172 373.720673,804.016479 &#xA;&#x9;C385.623230,806.287048 397.518982,808.572754 409.468658,810.581238 &#xA;&#x9;C413.763763,811.303162 414.371063,812.739868 412.228271,817.288879 &#xA;&#x9;C406.781006,828.853027 401.332275,840.416443 395.855499,851.966614 &#xA;&#x9;C388.023529,868.483704 380.543762,885.160339 374.483551,902.413208 &#xA;&#x9;C372.992798,906.657166 370.647369,911.015137 372.430695,915.914185 &#xA;&#x9;C373.071350,917.674072 371.730804,919.092285 371.029480,920.562012 &#xA;&#x9;C367.724792,927.487793 370.037872,935.338074 376.526611,939.061340 &#xA;&#x9;C383.559418,943.096802 394.671478,938.919495 396.644104,930.584595 &#xA;&#x9;C399.314148,919.302917 405.092651,909.371643 409.056885,898.669922 &#xA;&#x9;C418.270752,873.796509 428.106110,849.153320 437.684967,824.415100 &#xA;&#x9;C437.804474,824.106445 437.869659,823.775940 437.950256,823.453186 &#xA;&#x9;C440.166962,814.580261 440.164978,814.598816 449.264374,815.478943 &#xA;&#x9;C461.359314,816.649048 473.458588,817.774658 485.552002,818.959961 &#xA;&#x9;C486.529083,819.055664 487.475464,819.464783 488.715668,819.998901 &#xA;&#x9;C483.863953,821.468567 478.616882,821.131409 473.690918,819.910156 &#xA;&#x9;C463.861908,817.473145 453.668030,819.988403 443.920929,817.175659 &#xA;&#x9;C441.965485,816.611389 441.569550,818.372192 441.022583,819.830566 &#xA;&#x9;C431.771881,844.498779 422.656219,869.219910 413.120148,893.777710 &#xA;&#x9;C409.232239,903.790039 405.726685,914.002258 400.543121,923.476868 &#xA;&#x9;C399.877716,924.693115 399.602631,925.924561 399.470215,927.267700 &#xA;&#x9;C398.643860,935.649597 391.140381,942.652588 382.961853,942.718445 &#xA;&#x9;C371.900421,942.807495 364.235962,930.933838 368.720367,920.266479 &#xA;&#x9;C369.802979,917.691162 370.270813,915.278931 370.160889,912.581787 &#xA;&#x9;C369.865051,905.324707 373.439636,899.108704 375.923279,892.676636 &#xA;&#x9;C385.670013,867.434692 397.524872,843.131836 409.359222,818.825562 &#xA;&#x9;C411.471954,814.486267 410.436157,812.421631 405.989868,811.808655 &#xA;&#x9;C387.427032,809.249146 369.093201,805.765930 351.141388,800.165894 &#xA;&#x9;C326.701202,792.541809 303.231995,782.619446 283.369598,766.464600 &#xA;&#x9;C266.755737,752.951965 251.460876,737.748474 236.612732,722.200867 &#xA;&#x9;C226.349335,711.453979 217.160339,699.939148 209.073288,687.455933 &#xA;&#x9;C201.488968,675.748901 196.616272,662.941284 192.517288,649.770264 &#xA;&#x9;C191.022324,644.966553 190.316498,644.470764 186.421112,648.040283 &#xA;&#x9;C178.322372,655.461487 170.449646,663.129089 162.465729,670.675964 &#xA;&#x9;C147.358261,684.956543 132.270462,699.258240 117.083435,713.453674 &#xA;&#x9;C115.088898,715.317993 113.686050,717.462097 112.286331,719.720520 &#xA;&#x9;C107.856956,726.867310 100.095840,729.664062 92.445381,726.981934 &#xA;&#x9;C86.056206,724.742126 81.414749,716.683044 82.321411,709.175110 &#xA;&#x9;C82.799232,705.218262 84.888130,701.913086 87.614929,699.218689 &#xA;&#x9;C115.318115,671.845215 143.393021,644.854614 171.978470,618.404480 &#xA;&#x9;C175.717194,614.945068 179.503525,611.338806 184.153824,608.933899 &#xA;&#x9;C186.831909,607.548889 187.507660,605.158386 187.604752,602.257812 &#xA;&#x9;C187.815414,595.964478 187.501572,589.574463 190.264053,583.295044 &#xA;z"/>
  <path fill="#735427" stroke="none" d="&#xA;M768.545898,242.635284 &#xA;&#x9;C766.421875,239.703751 766.445007,235.994064 766.008850,232.382751 &#xA;&#x9;C764.775757,222.171494 764.640808,211.759293 761.117981,201.945267 &#xA;&#x9;C757.224670,191.099106 744.558655,185.997940 734.055359,190.461380 &#xA;&#x9;C709.848206,200.748383 686.788513,213.241837 663.913696,226.145935 &#xA;&#x9;C651.168640,233.335602 638.306885,240.292938 627.331787,250.129562 &#xA;&#x9;C623.745239,253.344086 620.606750,257.067627 616.953735,260.197083 &#xA;&#x9;C610.652588,265.595062 605.400940,265.476349 599.272034,259.820740 &#xA;&#x9;C590.729736,251.938187 584.891846,241.932083 579.007996,232.143478 &#xA;&#x9;C569.651672,216.577850 561.957825,214.017990 545.468811,223.094208 &#xA;&#x9;C526.179260,233.711975 508.266144,246.353317 492.242035,261.506348 &#xA;&#x9;C488.753937,264.804810 486.461395,264.423645 483.760437,260.860626 &#xA;&#x9;C480.618530,256.716034 478.334900,252.109512 476.014679,247.512238 &#xA;&#x9;C470.539886,236.664261 459.772064,234.611099 450.665741,242.696823 &#xA;&#x9;C439.765747,252.375168 431.208221,264.091248 422.323578,275.497772 &#xA;&#x9;C404.330933,298.597504 387.309326,322.415466 370.387939,346.305725 &#xA;&#x9;C367.792755,349.969757 366.123749,353.697418 366.423370,358.318939 &#xA;&#x9;C366.718872,362.876770 368.755768,366.153992 372.540894,368.526794 &#xA;&#x9;C373.800537,369.316437 375.567383,369.987946 376.084625,371.161896 &#xA;&#x9;C380.312042,380.755859 389.169708,381.344421 397.710114,382.639069 &#xA;&#x9;C398.697449,382.788727 399.680389,382.979126 400.654358,383.199219 &#xA;&#x9;C400.961731,383.268707 401.233337,383.496552 402.049622,383.936981 &#xA;&#x9;C399.345490,385.626404 396.535431,385.354523 393.946045,385.751129 &#xA;&#x9;C380.155548,387.863464 366.343170,389.834869 352.560272,391.994843 &#xA;&#x9;C337.472076,394.359344 323.357269,399.562561 309.802551,406.561890 &#xA;&#x9;C290.968689,416.287262 273.077728,427.476166 256.699921,440.909271 &#xA;&#x9;C238.669724,455.697723 227.202057,475.434753 217.080673,495.954620 &#xA;&#x9;C207.714676,514.942993 201.948395,535.273254 196.234131,555.566711 &#xA;&#x9;C194.664520,561.140991 194.021317,566.984436 193.091187,572.726746 &#xA;&#x9;C192.689896,575.204163 192.414047,577.678833 190.899506,580.142212 &#xA;&#x9;C188.799591,573.878784 191.569626,567.759277 192.944839,561.796509 &#xA;&#x9;C198.238205,538.844788 205.217758,516.380371 215.291412,494.977783 &#xA;&#x9;C229.733963,464.292969 250.178406,439.156891 279.801025,421.594208 &#xA;&#x9;C294.381775,412.949554 308.705536,403.906372 324.463409,397.650574 &#xA;&#x9;C335.034668,393.453796 345.987244,390.438141 357.457428,388.920258 &#xA;&#x9;C365.776764,387.819305 374.430664,387.969727 382.436676,384.736237 &#xA;&#x9;C383.331604,384.374847 384.557556,384.439270 384.750061,383.221039 &#xA;&#x9;C384.994324,381.675476 383.752472,381.334869 382.612793,380.972137 &#xA;&#x9;C381.981445,380.771149 381.189880,380.675476 380.778961,380.240723 &#xA;&#x9;C375.698975,374.867065 370.264221,369.758209 365.756500,363.934387 &#xA;&#x9;C361.439941,358.357544 363.743103,352.184448 367.264526,347.257812 &#xA;&#x9;C384.481659,323.170227 401.383514,298.843506 419.657837,275.529999 &#xA;&#x9;C428.994629,263.618561 438.237457,251.656754 449.283081,241.152512 &#xA;&#x9;C459.991547,230.968887 474.506165,235.896759 478.581329,247.843231 &#xA;&#x9;C479.840057,251.533295 482.009399,254.645157 484.053406,257.851746 &#xA;&#x9;C486.223419,261.256134 488.743103,262.360718 492.048187,258.976318 &#xA;&#x9;C500.461029,250.361633 510.349731,243.575882 520.085632,236.604813 &#xA;&#x9;C530.911804,228.853027 541.992676,221.567398 554.629089,216.998825 &#xA;&#x9;C563.061340,213.950226 570.415161,216.260101 576.263855,224.631729 &#xA;&#x9;C582.827820,234.027069 588.681458,243.910553 595.604126,253.072128 &#xA;&#x9;C598.050110,256.309204 600.887207,259.015625 604.379761,261.105865 &#xA;&#x9;C606.762817,262.532135 608.917175,262.640594 611.406921,261.283142 &#xA;&#x9;C615.109070,259.264618 618.369507,256.797180 621.146240,253.614609 &#xA;&#x9;C632.094543,241.066010 646.664490,233.535461 660.799927,225.526718 &#xA;&#x9;C676.103149,216.856384 691.593689,208.489792 707.264404,200.504715 &#xA;&#x9;C717.439026,195.320236 727.735352,190.247803 738.684570,186.771164 &#xA;&#x9;C745.871643,184.489090 757.408936,190.651901 761.982971,198.810776 &#xA;&#x9;C764.325867,202.989624 765.793701,207.705200 765.942810,212.068954 &#xA;&#x9;C766.289917,222.226898 769.467041,232.077469 768.545898,242.635284 &#xA;z"/>
  <path fill="#735427" stroke="none" d="&#xA;M1024.866699,455.828186 &#xA;&#x9;C1027.442505,455.159790 1027.691040,457.156738 1027.784058,458.987396 &#xA;&#x9;C1028.476562,472.621643 1030.447510,486.073547 1033.078125,499.460999 &#xA;&#x9;C1035.350952,511.027893 1037.480103,522.631531 1039.288574,534.278564 &#xA;&#x9;C1040.894531,544.621826 1042.941040,554.938110 1042.881470,565.481384 &#xA;&#x9;C1042.845581,571.827026 1043.383545,578.117798 1044.458740,584.374634 &#xA;&#x9;C1044.738037,585.999634 1044.852905,587.810059 1042.954346,588.732117 &#xA;&#x9;C1041.438354,589.468323 1039.969238,589.068909 1038.762817,588.033020 &#xA;&#x9;C1024.677002,575.938354 1006.629944,571.713196 990.491699,563.699890 &#xA;&#x9;C985.437805,561.190430 980.236023,558.941284 975.354187,556.134155 &#xA;&#x9;C970.694092,553.454651 965.698547,553.034302 960.868774,554.098389 &#xA;&#x9;C955.419250,555.299072 950.277954,554.312012 945.030579,553.659668 &#xA;&#x9;C942.466797,553.340942 940.036682,552.276489 939.221252,549.577271 &#xA;&#x9;C933.785339,531.582581 924.568054,515.420959 914.977295,499.453827 &#xA;&#x9;C899.132690,473.074890 882.878235,446.968842 863.566711,422.908936 &#xA;&#x9;C849.997253,406.002991 832.200378,394.861603 812.946960,385.812103 &#xA;&#x9;C797.454651,378.530426 781.334412,372.780640 765.114319,367.325439 &#xA;&#x9;C761.575684,366.135345 759.846863,361.883362 761.364380,358.565765 &#xA;&#x9;C762.669922,355.711578 764.058960,358.057129 765.296814,358.642212 &#xA;&#x9;C775.438660,363.435944 784.252258,360.242188 788.080872,350.316742 &#xA;&#x9;C788.377808,349.547028 788.724426,348.730072 788.741150,347.928650 &#xA;&#x9;C788.976562,336.649231 788.228821,325.606750 780.319702,316.520569 &#xA;&#x9;C776.351135,311.961456 774.361938,306.411926 773.422607,300.706177 &#xA;&#x9;C770.476501,282.810516 768.257568,264.814911 768.326355,246.171906 &#xA;&#x9;C770.518066,250.558990 771.039612,255.765060 771.061035,260.842957 &#xA;&#x9;C771.104797,271.211334 772.771851,281.400330 773.940002,291.623383 &#xA;&#x9;C774.970459,300.641785 777.025146,309.285675 783.203186,316.892670 &#xA;&#x9;C791.537354,327.154449 791.560669,339.798920 789.460449,352.134064 &#xA;&#x9;C788.419312,358.249420 781.564026,362.421082 775.146790,362.461823 &#xA;&#x9;C772.655640,362.477631 770.162170,362.250061 767.671143,362.110413 &#xA;&#x9;C766.443909,362.041626 764.834961,361.055389 764.359192,363.020355 &#xA;&#x9;C763.951721,364.703094 765.370178,365.224976 766.684204,365.685577 &#xA;&#x9;C773.715698,368.150269 780.797180,370.486115 787.754272,373.146362 &#xA;&#x9;C810.770935,381.947632 833.359558,391.628662 852.157837,408.141663 &#xA;&#x9;C864.002808,418.546661 873.019043,431.397522 881.986450,444.208038 &#xA;&#x9;C900.101501,470.086578 916.851135,496.826141 931.404724,524.882324 &#xA;&#x9;C934.980652,531.776062 938.185242,538.907166 940.143921,546.511414 &#xA;&#x9;C940.749939,548.864319 942.205322,550.497559 944.806274,551.190186 &#xA;&#x9;C950.453674,552.694153 955.722473,553.673645 961.785583,551.616760 &#xA;&#x9;C968.692627,549.273621 975.136902,553.292053 981.075073,556.542847 &#xA;&#x9;C993.775391,563.495605 1007.180542,568.793152 1020.553528,574.193909 &#xA;&#x9;C1026.480835,576.587708 1031.435303,580.559021 1036.735840,583.973267 &#xA;&#x9;C1037.924438,584.738831 1038.891846,586.483582 1040.595947,585.471008 &#xA;&#x9;C1042.124390,584.562866 1041.637817,582.796387 1041.656006,581.352051 &#xA;&#x9;C1041.832275,567.347107 1039.634155,553.573792 1037.909912,539.728760 &#xA;&#x9;C1037.026123,532.632874 1035.656738,525.645386 1034.532349,518.611572 &#xA;&#x9;C1032.889404,508.333435 1030.546875,498.168091 1028.850830,487.897156 &#xA;&#x9;C1027.471558,479.544861 1026.583374,471.110687 1025.524536,462.706909 &#xA;&#x9;C1025.254883,460.567261 1025.164551,458.404999 1024.866699,455.828186 &#xA;z"/>
  <path fill="#735427" stroke="none" d="&#xA;M741.320129,827.547913 &#xA;&#x9;C744.658447,825.161011 747.194214,826.279419 749.105103,829.883606 &#xA;&#x9;C758.843140,848.251648 769.646790,866.005981 780.867188,883.482666 &#xA;&#x9;C793.701904,903.473694 805.892334,923.929260 820.699768,942.577393 &#xA;&#x9;C824.481506,947.340027 828.788513,951.901611 836.008301,951.390259 &#xA;&#x9;C842.190491,950.952454 846.363403,947.714600 847.950867,941.343628 &#xA;&#x9;C849.471680,935.239868 847.226990,928.625671 842.050415,926.262695 &#xA;&#x9;C838.263489,924.534180 836.015381,921.810486 834.095032,918.434692 &#xA;&#x9;C816.585144,887.654114 797.319519,857.944031 778.702026,827.840027 &#xA;&#x9;C776.213867,823.816772 777.336243,822.152161 781.354492,821.213379 &#xA;&#x9;C788.953918,819.438049 796.596069,817.831848 804.153198,815.893066 &#xA;&#x9;C821.277954,811.499573 836.618347,803.150818 851.107605,793.378845 &#xA;&#x9;C868.514587,781.639099 885.152771,768.844604 898.408020,752.278015 &#xA;&#x9;C911.954224,735.347839 924.543945,717.749451 931.248230,696.841797 &#xA;&#x9;C935.452393,683.731018 938.116516,670.166870 941.449707,656.802734 &#xA;&#x9;C946.974792,634.650330 946.295105,612.237061 946.246521,589.416199 &#xA;&#x9;C948.042053,592.060791 948.318665,595.348877 948.523071,598.672852 &#xA;&#x9;C949.404480,613.004822 949.072327,627.337036 946.516418,641.442383 &#xA;&#x9;C942.531250,663.434387 938.463318,685.586121 929.841064,706.252625 &#xA;&#x9;C921.026550,727.379944 907.784485,746.009644 891.830322,762.515442 &#xA;&#x9;C871.032349,784.032471 846.775513,800.710815 819.472595,812.879272 &#xA;&#x9;C810.377808,816.932678 800.749146,819.467773 790.881470,821.048462 &#xA;&#x9;C788.116150,821.491455 785.389282,822.341736 782.733887,823.262085 &#xA;&#x9;C779.291504,824.455078 780.462646,826.862976 781.714905,828.891479 &#xA;&#x9;C788.435730,839.778625 795.335327,850.555847 802.007263,861.472473 &#xA;&#x9;C813.604187,880.447510 825.122192,899.471436 836.545898,918.551025 &#xA;&#x9;C837.799438,920.644531 839.126282,922.209534 841.323303,923.341919 &#xA;&#x9;C847.443787,926.496521 851.099365,931.615845 850.728699,938.555725 &#xA;&#x9;C850.351135,945.626465 846.209473,950.647217 839.723145,953.311157 &#xA;&#x9;C833.659729,955.801453 828.568359,952.944702 824.307190,949.006958 &#xA;&#x9;C815.683350,941.037415 809.498901,931.086914 803.088013,921.388062 &#xA;&#x9;C783.393555,891.592468 763.786926,861.732422 747.147095,830.069763 &#xA;&#x9;C745.727783,827.369080 743.532959,828.326660 741.320129,827.547913 &#xA;z"/>
  <path fill="#735427" stroke="none" d="&#xA;M1044.249512,620.278931 &#xA;&#x9;C1046.049927,620.713745 1045.543579,622.380127 1045.625977,623.795410 &#xA;&#x9;C1047.155396,650.050476 1047.172363,676.348328 1047.890991,702.626709 &#xA;&#x9;C1048.345703,719.251587 1049.187500,735.869141 1050.117432,752.475403 &#xA;&#x9;C1050.346924,756.573853 1051.206299,760.741882 1052.475952,764.650574 &#xA;&#x9;C1054.039551,769.464172 1058.223999,771.514832 1062.969238,771.708923 &#xA;&#x9;C1067.189941,771.881531 1070.701904,770.238098 1072.484131,765.876465 &#xA;&#x9;C1073.632324,763.066528 1074.426270,760.263733 1074.568848,757.213379 &#xA;&#x9;C1076.281250,720.592346 1074.919189,684.041443 1072.932617,647.459351 &#xA;&#x9;C1071.959351,629.536987 1069.763184,611.667297 1070.225586,593.219727 &#xA;&#x9;C1073.213745,598.332947 1072.661255,604.435242 1072.971436,610.345825 &#xA;&#x9;C1074.688599,643.060608 1076.947266,675.753357 1077.667847,708.511719 &#xA;&#x9;C1077.968018,722.156494 1077.815186,735.820312 1077.472168,749.465515 &#xA;&#x9;C1077.343872,754.568909 1076.429932,759.723999 1075.259033,764.711060 &#xA;&#x9;C1073.870361,770.624695 1068.145508,774.322083 1062.096313,773.907776 &#xA;&#x9;C1055.472900,773.454102 1050.031616,768.508362 1049.396484,761.356201 &#xA;&#x9;C1048.235107,748.276978 1046.283691,735.263062 1046.412720,722.066772 &#xA;&#x9;C1046.743408,688.274597 1043.183594,654.564087 1044.249512,620.278931 &#xA;z"/>
  <path fill="#735427" stroke="none" d="&#xA;M1056.661621,452.074036 &#xA;&#x9;C1055.778320,450.738647 1056.827393,449.952698 1057.763550,449.364197 &#xA;&#x9;C1069.865234,441.756134 1075.050171,429.024628 1081.375122,417.231171 &#xA;&#x9;C1096.058105,389.853210 1083.923706,363.624939 1059.651855,349.164612 &#xA;&#x9;C1043.737183,339.683136 1026.202271,336.683807 1007.818237,339.446167 &#xA;&#x9;C1004.699951,339.914703 1001.546265,339.366455 998.432983,340.432007 &#xA;&#x9;C990.268616,343.226379 985.951050,350.056091 987.690552,358.503876 &#xA;&#x9;C988.203979,360.997253 987.245117,362.807129 986.091309,364.534454 &#xA;&#x9;C974.800964,381.435364 973.421692,400.618774 975.344482,419.722931 &#xA;&#x9;C976.867432,434.854095 987.677795,449.457733 1006.759460,452.732452 &#xA;&#x9;C1009.391602,453.184174 1012.025085,453.547089 1014.727966,455.000000 &#xA;&#x9;C1003.624268,456.071320 993.636841,452.360260 985.809570,444.405609 &#xA;&#x9;C974.614807,433.028564 970.535522,419.104767 973.337219,403.206299 &#xA;&#x9;C974.485657,396.689636 973.872375,390.015594 975.531250,383.434845 &#xA;&#x9;C977.149780,377.014221 979.843689,371.250580 983.161743,365.701630 &#xA;&#x9;C984.948059,362.714264 985.641541,359.753967 985.502014,356.269379 &#xA;&#x9;C985.067444,345.418640 992.712769,337.633606 1003.544861,337.692352 &#xA;&#x9;C1007.233887,337.712341 1010.852051,337.498871 1014.394287,336.393829 &#xA;&#x9;C1021.652527,334.129547 1028.660767,336.442780 1035.510376,338.142975 &#xA;&#x9;C1044.287109,340.321472 1053.217896,342.199036 1061.006226,347.449097 &#xA;&#x9;C1078.868408,359.489655 1090.851929,374.732025 1089.647461,397.588165 &#xA;&#x9;C1089.327637,403.654999 1087.345459,409.322113 1084.735107,414.661316 &#xA;&#x9;C1079.347656,425.680969 1074.161133,436.871277 1065.376587,445.810272 &#xA;&#x9;C1062.902588,448.327789 1060.188599,450.459900 1056.661621,452.074036 &#xA;z"/>
  <path fill="#735427" stroke="none" d="&#xA;M623.002930,827.697998 &#xA;&#x9;C636.845276,826.422363 651.017456,826.453735 665.060608,827.506042 &#xA;&#x9;C685.876221,829.065796 706.592346,827.916870 727.350220,827.195251 &#xA;&#x9;C731.004333,827.068237 734.664429,827.110413 738.783813,827.233398 &#xA;&#x9;C733.171997,831.042664 726.293945,829.833679 719.827271,830.102295 &#xA;&#x9;C691.256470,831.289185 662.686584,829.632568 634.113098,829.339600 &#xA;&#x9;C630.494324,829.302490 626.884277,828.422180 623.002930,827.697998 &#xA;z"/>
  <path fill="#735427" stroke="none" d="&#xA;M495.003418,820.708252 &#xA;&#x9;C500.538818,819.355652 506.366577,819.988403 512.142883,820.498108 &#xA;&#x9;C536.365845,822.635620 560.654358,823.668213 584.921875,825.059570 &#xA;&#x9;C594.726990,825.621704 604.528015,826.255920 614.666626,827.093628 &#xA;&#x9;C613.133423,828.395874 611.096191,827.834656 609.131592,827.914917 &#xA;&#x9;C587.477234,828.799255 565.895935,826.561401 544.403564,824.935242 &#xA;&#x9;C528.046875,823.697754 511.433807,824.662415 495.003418,820.708252 &#xA;z"/>
  <path fill="#735427" stroke="none" d="&#xA;M947.210266,586.788452 &#xA;&#x9;C948.542725,583.996948 950.838135,585.929810 952.539612,586.374023 &#xA;&#x9;C967.479614,590.274292 982.369995,593.676697 997.959961,594.730164 &#xA;&#x9;C1009.412354,595.504028 1019.966736,601.189148 1028.705200,608.954895 &#xA;&#x9;C1033.380981,613.110291 1038.255249,616.624451 1044.091919,619.348267 &#xA;&#x9;C1038.475098,620.257690 1034.194946,617.179138 1030.670044,613.440674 &#xA;&#x9;C1022.351746,604.618591 1011.508667,600.579529 1000.526184,596.790344 &#xA;&#x9;C998.273987,596.013367 995.570129,596.300232 993.096741,596.454590 &#xA;&#x9;C984.961853,596.962219 977.423462,594.101318 969.624146,592.653564 &#xA;&#x9;C962.116272,591.259949 954.796570,589.338257 947.210266,586.788452 &#xA;z"/>
  <path fill="#735427" stroke="none" d="&#xA;M1070.528809,589.626099 &#xA;&#x9;C1068.043579,582.252319 1067.986206,574.236511 1067.570190,566.304993 &#xA;&#x9;C1066.846313,552.500977 1065.551514,538.774475 1063.463867,525.111023 &#xA;&#x9;C1063.039673,522.334351 1063.192871,519.469543 1063.246338,516.196655 &#xA;&#x9;C1064.733765,517.137451 1065.314453,518.867554 1065.504028,520.706665 &#xA;&#x9;C1066.577271,531.122620 1068.062012,541.522461 1068.535522,551.967224 &#xA;&#x9;C1069.099854,564.414978 1071.955078,576.726257 1070.528809,589.626099 &#xA;z"/>
  <path fill="#735427" stroke="none" d="&#xA;M1063.484253,512.636963 &#xA;&#x9;C1062.169434,511.852264 1061.917603,510.312683 1061.749756,508.883942 &#xA;&#x9;C1059.709351,491.521484 1056.800171,474.253998 1056.145752,456.315277 &#xA;&#x9;C1057.765747,459.071350 1058.761841,462.419189 1058.783447,465.928131 &#xA;&#x9;C1058.846313,476.081940 1061.411377,485.956421 1061.979126,496.080811 &#xA;&#x9;C1062.280273,501.451416 1064.291382,506.740662 1063.484253,512.636963 &#xA;z"/>
  <path fill="#070605" stroke="none" d="&#xA;M606.003052,377.745087 &#xA;&#x9;C625.333130,378.003448 644.163696,378.230682 662.993713,378.496643 &#xA;&#x9;C681.735046,378.761353 699.976990,382.438660 718.160950,386.563354 &#xA;&#x9;C742.174316,392.010345 765.691345,399.142456 788.418396,408.556885 &#xA;&#x9;C804.186584,415.088684 820.351135,421.559998 832.585449,433.999146 &#xA;&#x9;C843.317322,444.910675 851.982239,457.652435 860.632202,470.281128 &#xA;&#x9;C876.878967,494.000824 892.829163,517.917480 905.019775,544.075073 &#xA;&#x9;C911.931458,558.905762 915.118164,574.702332 915.923157,590.917236 &#xA;&#x9;C916.824036,609.062134 916.936035,627.202271 913.619934,645.221802 &#xA;&#x9;C907.241943,679.878662 896.942017,712.741089 871.552795,738.793213 &#xA;&#x9;C856.977905,753.748779 840.923279,767.006531 823.082092,777.839233 &#xA;&#x9;C811.362732,784.954895 798.230713,789.251892 784.839844,791.835510 &#xA;&#x9;C761.948364,796.252197 738.887512,799.502869 715.450500,799.770935 &#xA;&#x9;C688.125977,800.083374 660.795410,799.871155 633.523132,798.732300 &#xA;&#x9;C584.428223,796.682251 535.296265,795.219055 486.316345,790.687378 &#xA;&#x9;C462.765472,788.508423 439.220062,786.296631 415.836334,782.892273 &#xA;&#x9;C378.021027,777.386902 341.429779,767.558472 309.510803,745.525574 &#xA;&#x9;C279.054260,724.502319 253.272766,698.479614 234.574539,666.408569 &#xA;&#x9;C221.472458,643.936096 216.787964,619.567200 220.100540,592.987183 &#xA;&#x9;C224.324203,559.096680 235.811539,527.795715 249.738220,497.241486 &#xA;&#x9;C259.462830,475.906342 276.672516,460.900970 296.418884,448.638733 &#xA;&#x9;C311.539001,439.249390 326.792480,430.255188 343.409424,423.643555 &#xA;&#x9;C351.785095,420.311005 360.601257,419.454163 369.239777,418.310089 &#xA;&#x9;C392.655121,415.208954 416.215546,413.221008 439.692719,410.564209 &#xA;&#x9;C463.676117,407.850098 487.632599,404.895752 511.592712,401.979797 &#xA;&#x9;C518.011780,401.198608 524.551270,401.569031 530.810974,399.211243 &#xA;&#x9;C539.129089,396.078156 542.409851,390.613190 539.869995,382.157837 &#xA;&#x9;C538.664368,378.144409 540.752747,378.045715 543.543274,377.860352 &#xA;&#x9;C564.195068,376.488617 584.848755,377.100464 606.003052,377.745087 &#xA;z"/>
  <path fill="#090806" stroke="none" d="&#xA;M751.076172,347.562561 &#xA;&#x9;C738.937927,346.548981 727.620728,350.265625 715.912476,350.453735 &#xA;&#x9;C699.492981,350.717529 683.426025,348.611755 667.280945,346.196198 &#xA;&#x9;C652.139771,343.930878 636.881653,342.426544 621.657593,340.744690 &#xA;&#x9;C615.038269,340.013458 608.382385,339.365479 601.731018,339.215668 &#xA;&#x9;C578.141846,338.684265 554.428406,340.021973 532.367798,348.301697 &#xA;&#x9;C522.114136,352.150024 512.470825,352.182831 502.412079,352.490784 &#xA;&#x9;C470.935120,353.454529 439.447449,354.067322 407.963776,354.810486 &#xA;&#x9;C406.297974,354.849792 404.628815,354.894470 402.964935,354.834564 &#xA;&#x9;C400.701050,354.753052 399.342377,354.144958 401.035858,351.572357 &#xA;&#x9;C417.471863,326.604370 432.034393,300.315643 453.043030,278.582001 &#xA;&#x9;C456.254883,275.259338 457.800568,276.008698 460.215240,279.334656 &#xA;&#x9;C465.599396,286.750824 471.437286,293.781097 479.682800,298.363586 &#xA;&#x9;C488.364044,303.188141 496.793518,302.661530 504.385132,296.587006 &#xA;&#x9;C520.876953,283.390839 538.797302,272.100067 554.915100,258.434875 &#xA;&#x9;C557.764832,256.018768 558.914368,257.844421 560.477478,259.676483 &#xA;&#x9;C568.466797,269.040283 576.141602,278.710419 585.618042,286.674072 &#xA;&#x9;C589.173340,289.661804 593.006836,292.282013 597.428040,293.963379 &#xA;&#x9;C609.218628,298.447296 619.248962,293.270782 629.012512,287.912140 &#xA;&#x9;C653.831604,274.290436 676.184509,256.832947 700.051453,241.718338 &#xA;&#x9;C709.033325,236.030243 717.908020,230.173264 726.852295,224.425446 &#xA;&#x9;C727.967407,223.708878 729.178223,223.116959 730.398499,222.592590 &#xA;&#x9;C735.936646,220.212921 738.232239,221.670288 738.310303,227.635071 &#xA;&#x9;C738.336426,229.632355 738.376953,231.659088 738.092529,233.626343 &#xA;&#x9;C734.248596,260.217773 739.409363,285.986053 745.285400,311.663391 &#xA;&#x9;C747.135376,319.747620 751.315002,326.915833 756.666321,333.065918 &#xA;&#x9;C761.433044,338.544159 757.734741,343.656647 756.755127,348.561127 &#xA;&#x9;C756.154907,351.565857 753.467285,347.278961 751.076172,347.562561 &#xA;z"/>
  <path fill="#0F0C07" stroke="none" d="&#xA;M1047.979248,414.898010 &#xA;&#x9;C1043.661621,415.219513 1039.942871,412.339325 1035.629517,414.633636 &#xA;&#x9;C1032.029053,416.548737 1029.451172,419.044586 1027.936279,422.687927 &#xA;&#x9;C1026.591431,425.922150 1024.521362,427.365967 1020.925293,426.473236 &#xA;&#x9;C1018.189331,425.794037 1015.304321,425.672577 1012.608704,424.882965 &#xA;&#x9;C1008.387512,423.646423 1005.776428,421.049622 1004.597717,416.405640 &#xA;&#x9;C1000.375732,399.771027 1005.196167,385.304749 1014.350769,371.667236 &#xA;&#x9;C1015.370300,370.148407 1016.414429,369.026550 1018.330750,369.347504 &#xA;&#x9;C1025.315918,370.517578 1032.409790,370.285065 1039.295898,372.964020 &#xA;&#x9;C1057.242798,379.945862 1062.227905,395.937469 1050.811157,411.656372 &#xA;&#x9;C1050.032593,412.728394 1049.139771,413.717499 1047.979248,414.898010 &#xA;z"/>
  <path fill="#EEA848" stroke="none" d="&#xA;M542.111023,633.249329 &#xA;&#x9;C570.138794,630.936829 597.670532,628.440247 625.237244,626.421265 &#xA;&#x9;C638.146851,625.475830 651.142639,623.515259 664.067505,626.210327 &#xA;&#x9;C675.719238,628.639832 686.958069,632.125854 695.655212,640.963440 &#xA;&#x9;C698.946838,644.308228 700.649841,648.205017 700.708496,653.015381 &#xA;&#x9;C700.825684,662.632935 698.218018,671.546021 693.358276,679.615601 &#xA;&#x9;C688.050293,688.429565 682.280457,697.005127 676.178284,705.291748 &#xA;&#x9;C667.558105,716.998047 654.634827,721.523743 641.174866,724.631348 &#xA;&#x9;C627.170288,727.864502 612.844177,728.513794 598.546387,729.278931 &#xA;&#x9;C576.758972,730.444885 554.968811,732.102417 533.143616,730.770935 &#xA;&#x9;C517.704468,729.829102 502.118774,729.812744 486.943390,726.477295 &#xA;&#x9;C466.300415,721.940002 446.049194,716.093689 427.723175,705.055542 &#xA;&#x9;C421.916107,701.557861 415.284454,699.447998 410.283295,694.590698 &#xA;&#x9;C399.753479,684.363708 398.262970,672.430786 404.467651,659.155396 &#xA;&#x9;C410.648163,645.931580 420.331238,639.734070 434.863098,639.243225 &#xA;&#x9;C459.498352,638.411316 484.110046,636.846741 508.725739,635.483765 &#xA;&#x9;C519.700928,634.875977 530.661865,634.009827 542.111023,633.249329 &#xA;z"/>
  <path fill="#E6A348" stroke="none" d="&#xA;M359.478760,605.313171 &#xA;&#x9;C344.495239,605.526245 334.423065,598.378296 332.839874,586.232605 &#xA;&#x9;C330.805634,570.626526 341.458344,558.965820 358.088745,560.206360 &#xA;&#x9;C369.571960,561.062927 378.846985,570.002930 379.699371,579.970581 &#xA;&#x9;C380.766876,592.453796 372.580719,602.911133 359.478760,605.313171 &#xA;z"/>
  <path fill="#E5A347" stroke="none" d="&#xA;M779.808289,565.334900 &#xA;&#x9;C791.614868,566.040161 800.639282,576.689270 799.673645,588.042053 &#xA;&#x9;C799.117493,594.580505 798.689880,601.041565 792.911072,605.566650 &#xA;&#x9;C785.467957,611.395020 777.206970,612.921692 768.629944,609.135254 &#xA;&#x9;C760.203735,605.415527 755.367615,598.201904 755.149780,589.137146 &#xA;&#x9;C754.930237,580.001526 759.050659,572.472961 767.330872,567.701233 &#xA;&#x9;C771.096802,565.530945 775.134766,565.013794 779.808289,565.334900 &#xA;z"/>
</svg>