<svg xmlns="http://www.w3.org/2000/svg" xml:space="preserve" baseProfile="tiny-ps" viewBox="0 0 1170 1170"><title>Potato_tech_dev</title><path fill="#050505" d="M618 1171c-204.5 0-408.5-.012-612.5.094-3.75.002-4.594-.845-4.593-4.594q.15-580.5 0-1161C.906 1.75 1.751.906 5.5.907q580.5.15 1161 0c3.749-.001 4.594.844 4.593 4.593q-.15 580.5 0 1161c.001 3.749-.844 4.596-4.593 4.594-182.667-.107-365.333-.094-548.5-.094"/><path fill="#e9a548" d="M947.183 586.549c-.495.673-.631 1.186-.76 2.102 2.086 9.119.821 17.974 1.042 26.764.47 18.723-3.925 36.72-8.096 54.801-2.457 10.65-5.339 21.111-8.825 31.457-3.523 10.458-8.98 19.846-14.952 29-10.674 16.363-22.851 31.443-37.854 44.09-14.134 11.916-29.143 22.53-45.588 31.08-12.87 6.69-26.25 11.786-40.604 14.217-2.762.468-5.49 1.231-8.22 1.885-4.355 1.042-4.998 2.966-2.567 6.867 7.725 12.393 15.427 24.802 23.158 37.19 10.984 17.6 21.866 35.275 32.043 53.364 1.283 2.282 2.919 3.934 5.26 5.07 5.841 2.836 8.533 7.556 8.294 14.057-.23 6.288-3.356 10.927-8.82 13.366-5.408 2.415-10.646.815-15.255-2.9-6.065-4.887-10.09-11.452-14.483-17.666-9.207-13.026-17.529-26.645-26.256-39.99-12.994-19.868-25.26-40.135-36.489-61.032-1.573-2.928-3.537-3.675-6.831-3.018-.762.104-1.154.108-1.84.126-6.733 2.273-13.465 1.003-20.042 1.484-15.202 1.112-30.51 1.4-45.689.361-16.717-1.144-33.467.263-50.605-1.612-2.758-.19-5.048-.233-7.77-.279-8.505-.543-16.599-.53-24.681-.735-18.114-.457-36.15-2.072-54.207-3.358-5.977-.426-11.97.234-17.93-.714-7.601-1.21-15.33-.949-23.425-1.905-2.094-.202-3.734-.26-5.785-.336-12.585-.848-24.673-2.773-36.915-2.828-2.793-.012-5.54-.932-8.34-1.285-2.49-.314-3.772.685-4.322 3-3.145 13.24-9.091 25.476-13.755 38.168-6.344 17.265-13.254 34.318-19.857 51.486-1.435 3.729-3.186 7.302-4.866 10.905-1.482 3.177-2.287 6.422-3.046 9.846-1.402 6.325-6.355 10.007-12.265 11.914-5.47 1.765-11.284-.485-14.476-5.319-2.892-4.38-5.201-9.125-2.318-14.431 1.735-3.194 2.122-6.439 1.818-9.985-.303-3.535 1.051-6.883 2.282-10.078 5.6-14.53 11.596-28.886 18.136-43.039 6.258-13.539 12.808-26.932 19.116-40.443 2.1-4.497.856-6.52-3.965-7.183-27.434-3.779-54.393-9.31-79.854-20.777-15.143-6.82-30.561-13.425-43.013-24.522-21.329-19.007-42.756-38.025-60.826-60.331-8.485-10.474-16.059-21.687-21.698-33.929-3.368-7.313-6.048-15.04-8.153-22.888-1.3-4.842-2.424-5.312-6.247-1.997-9.18 7.961-17.692 16.636-26.47 25.028-12.961 12.39-25.896 24.812-39.267 36.774-3.5 3.13-7.035 6.36-9.467 10.716-3.694 6.614-11.338 9.457-17.834 7.429-6.012-1.877-11.006-8.887-10.775-15.346.168-4.722 2.2-8.899 5.655-11.825 7.771-6.58 14.083-14.572 21.654-21.366 14.23-12.77 27.956-26.115 41.498-39.61 8.96-8.93 17.926-17.926 28.134-25.25 6.081-4.365 8.73-8.73 8.949-16.09.129-4.338-.258-8.999 1.46-13.655.181-1.01.21-1.674.248-2.67 3.043-24.625 10.304-47.837 19.003-70.54 8.406-21.937 20.052-42.205 35.654-59.936 9.517-10.815 21.431-18.775 33.314-26.715 12.415-8.297 25.352-15.702 38.902-21.947 12.98-5.983 26.587-9.771 40.837-11.74 9.732-1.344 19.792-1.445 29.056-5.618 2.42-1.09 5.286.056 6.652-.115-6.58-.907-13.684-3.034-17.647-10.76-.8-1.56-2.195-2.394-3.652-3.258-8.577-5.085-10.152-15.036-3.768-23.624 8.339-11.215 15.927-22.974 24.26-34.191 16.044-21.598 31.733-43.498 49.644-63.613 4.073-4.575 8.36-9.464 14.717-11.525 6.32-2.05 15.25 1.444 18.219 7.39 2.441 4.89 4.535 9.97 7.94 14.333 3.45 4.422 4.275 4.822 8.24 1.177 9.068-8.335 18.73-15.864 28.84-22.867 10.653-7.377 21.282-14.724 33.641-19.137 7.88-2.814 14.041-1.472 19.423 5.343 7.01 8.874 12.614 18.742 19.217 27.915 2.656 3.69 5.698 6.92 9.304 9.665 3.282 2.498 6.605 2.61 10.265.755 4.276-2.168 7.625-5.468 10.552-9.025 7.048-8.565 16.57-13.83 25.734-19.373 20-12.098 40.708-22.98 61.576-33.501 8.544-4.308 17.225-8.54 26.336-11.54 7.915-2.604 14.433.596 20.338 6.058 5.898 5.456 7.383 12.723 7.982 19.87.787 9.387 2.61 18.653 3.04 28.437.138 1.047.179 1.729.24 2.752 1.221 8.875 1.863 17.478 2.409 26.06.684 10.756 2.3 21.353 4.18 31.925.8 4.498 2.958 8.539 5.896 11.969 4.477 5.226 6.628 11.15 7.739 17.925.95 5.795 2.104 11.376.302 17.127-2.851 9.1-11.276 13.67-20.408 11.084-.482-.137-.906-.428-1.375-.583-1.65-.548-3.47-.928-4.356 1-.997 2.17.391 3.445 2.318 4.163 4.815 1.796 9.745 3.273 14.563 5.049 25.097 9.25 49.84 19.202 70.696 36.644 7.067 5.91 12.823 13.025 18.483 20.207 11.73 14.884 22.289 30.588 32.19 46.734 11.794 19.23 24.248 38.084 33.367 58.84 2.14 4.87 3.765 9.917 5.636 14.877 1.015 2.69 2.752 3.637 5.518 4.175 5.559 1.082 10.831 1.772 16.554.098 6.848-2.004 12.984 1.58 18.718 4.79 12.634 7.07 26.09 12.26 39.448 17.643 6.155 2.48 10.987 6.778 16.476 10.16 1.475.908 2.721 2.816 4.83 1.547 1.882-1.132.905-2.928.877-4.529-.225-12.633-1.074-25.25-2.7-37.75-1.383-10.63-3.245-21.232-5.474-31.734-1.817-8.568-3.056-17.234-4.771-25.82-1.907-9.54-2.675-19.26-3.16-28.983-.044-.88-.383-1.599-1.364-2.387-3.284-.247-6.232-.292-9.627-.343-7.852-.957-15.171-2.15-21.797-5.96-9.29-5.34-14.758-13.654-18.119-23.472-3.559-10.397-1.562-20.948-.73-31.547.896-11.414 4.657-21.545 10.737-31.03 1.027-1.603.879-3.414.678-5.31-1.164-11.017 6.36-19.333 17.39-19.45 7.927-.084 15.708-2.218 23.764-1.065 20.235 2.894 38.286 10.156 51.059 26.733 8.941 11.605 12.943 24.891 9.05 39.753-3.685 14.066-11.327 26.07-19.466 37.806-2.88 4.152-7.2 6.851-11.443 10.148-.248 1.311-.261 2.29-.267 3.638 2.152 13.718 3.129 27.207 4.796 40.61.664 5.33 1.604 10.631 2.097 16.437.115 1.128.14 1.817.19 2.85 1.625 7.615 2.217 15.02 2.961 22.405 1.72 17.06 3.1 34.146 3.877 51.73.116 1.14.129 1.835.156 2.877.784 2.231 1.003 4.282 1.01 6.224.041 12.743 1.245 25.434 2.259 38.095 1.298 16.209.939 32.465 2.544 48.679 1.308 13.206.272 26.616.297 39.936.016 8.328-.114 16.659.043 24.983.089 4.724-1.313 9.175-2.164 13.675-1.123 5.937-6.477 9.344-12.064 8.847-6.792-.605-10.963-4.789-11.853-11.276-3.135-22.868-2.557-45.911-3.711-68.872-1.208-24.01-.67-48.04-2.232-72.463-.181-.439-.237-.515-.27-.548-5.943-1.206-10.6-4.393-14.774-8.653-6.303-6.432-14.565-9.598-22.641-13.093-5.314-2.3-10.785-2.566-16.41-2.47-7.008.121-13.587-2.381-20.387-3.55-7.635-1.314-14.97-3.792-22.848-5.38"/><path fill="#735427" d="M190.264 583.295c1.374 7.6-.195 15.29-1.314 23.005-.2 1.38-1.128 2.4-2.24 3.196-20.835 14.883-38.06 33.73-56.428 51.327-7.57 7.251-15.2 14.447-23.007 21.44-6.709 6.009-12.61 12.808-18.84 19.25-9.717 10.05-1.916 21.243 6.393 23.876 5.04 1.598 10.29.323 13.188-3.523 13.648-18.112 31.974-31.395 47.778-47.258 9.98-10.018 20.39-19.606 30.627-29.367 4.686-4.468 5.535-4.33 7.25 1.838 8.48 30.516 25.853 55.433 48.059 77.467 13.475 13.371 27.257 26.405 41.274 39.195 9.952 9.08 21.96 14.98 33.912 20.761 18.12 8.766 36.872 15.712 56.805 19.514 11.902 2.271 23.798 4.557 35.748 6.565 4.295.722 4.902 2.159 2.76 6.708a15012 15012 0 0 1-16.374 34.678c-7.831 16.517-15.311 33.193-21.371 50.446-1.491 4.244-3.837 8.602-2.053 13.501.64 1.76-.7 3.178-1.402 4.648-3.304 6.926-.991 14.776 5.498 18.5 7.032 4.035 18.144-.143 20.117-8.477 2.67-11.282 8.449-21.213 12.413-31.915 9.214-24.873 19.05-49.517 28.628-74.255.12-.309.185-.64.265-.962 2.217-8.873 2.215-8.854 11.314-7.974 12.095 1.17 24.195 2.296 36.288 3.481.977.096 1.923.505 3.164 1.039-4.852 1.47-10.1 1.132-15.025-.089-9.83-2.437-20.023.078-29.77-2.734-1.956-.565-2.351 1.196-2.898 2.655-9.251 24.668-18.367 49.389-27.903 73.947-3.888 10.012-7.393 20.224-12.577 29.699-.665 1.216-.94 2.448-1.073 3.79-.826 8.383-8.33 15.386-16.508 15.451-11.062.09-18.726-11.784-14.242-22.452 1.083-2.575 1.55-4.987 1.44-7.684-.295-7.257 3.28-13.473 5.763-19.905 9.747-25.242 21.602-49.545 33.436-73.851 2.113-4.34 1.077-6.404-3.37-7.017-18.562-2.56-36.896-6.043-54.848-11.643-24.44-7.624-47.909-17.547-67.771-33.701-16.614-13.513-31.91-28.717-46.757-44.264-10.264-10.747-19.453-22.262-27.54-34.745-7.584-11.707-12.457-24.515-16.556-37.686-1.495-4.803-2.2-5.3-6.096-1.73-8.099 7.421-15.971 15.09-23.955 22.636-15.108 14.28-30.196 28.582-45.383 42.778-1.994 1.864-3.397 4.008-4.797 6.267-4.429 7.146-12.19 9.943-19.84 7.26-6.39-2.239-11.031-10.298-10.125-17.806.478-3.957 2.567-7.262 5.294-9.956 27.703-27.374 55.778-54.364 84.363-80.815 3.74-3.459 7.526-7.065 12.176-9.47 2.678-1.385 3.354-3.776 3.45-6.676.211-6.294-.102-12.684 2.66-18.963M768.546 242.635c-2.124-2.931-2.101-6.64-2.537-10.252-1.233-10.212-1.368-20.624-4.891-30.438-3.893-10.846-16.56-15.947-27.063-11.484-24.207 10.287-47.266 22.78-70.141 35.685-12.745 7.19-25.607 14.147-36.582 23.984-3.587 3.214-6.725 6.938-10.378 10.067-6.301 5.398-11.553 5.28-17.682-.376-8.542-7.883-14.38-17.889-20.264-27.678-9.356-15.565-17.05-18.125-33.54-9.049-19.289 10.618-37.202 23.26-53.226 38.412-3.488 3.299-5.78 2.918-8.482-.645-3.141-4.145-5.425-8.751-7.745-13.349-5.475-10.848-16.243-12.9-25.35-4.815-10.9 9.678-19.457 21.394-28.341 32.8-17.993 23.1-35.015 46.918-51.936 70.809-2.595 3.664-4.264 7.391-3.965 12.013.296 4.558 2.333 7.835 6.118 10.208 1.26.79 3.026 1.46 3.544 2.635 4.227 9.594 13.085 10.182 21.625 11.477.987.15 1.97.34 2.944.56.308.07.58.298 1.396.738-2.705 1.69-5.515 1.418-8.104 1.814-13.79 2.112-27.603 4.084-41.386 6.244-15.088 2.364-29.203 7.568-42.757 14.567-18.834 9.725-36.725 20.914-53.103 34.347-18.03 14.789-29.498 34.526-39.62 55.046-9.365 18.988-15.132 39.318-20.846 59.612-1.57 5.574-2.213 11.417-3.143 17.16-.401 2.477-.677 4.952-2.191 7.415-2.1-6.263.67-12.383 2.045-18.345 5.293-22.952 12.273-45.417 22.346-66.82 14.443-30.684 34.887-55.82 64.51-73.383 14.58-8.644 28.905-17.688 44.662-23.943 10.572-4.197 21.524-7.213 32.994-8.73 8.32-1.102 16.974-.951 24.98-4.185.895-.361 2.12-.297 2.313-1.515.244-1.546-.998-1.886-2.137-2.249-.632-.2-1.423-.297-1.834-.731-5.08-5.374-10.515-10.483-15.022-16.307-4.317-5.576-2.014-11.75 1.508-16.676 17.217-24.088 34.119-48.414 52.393-71.728 9.337-11.911 18.58-23.873 29.625-34.377 10.709-10.184 25.223-5.256 29.298 6.69 1.26 3.69 3.428 6.802 5.472 10.009 2.17 3.404 4.69 4.509 7.995 1.124 8.413-8.614 18.302-15.4 28.038-22.371 10.826-7.752 21.907-15.038 34.543-19.606 8.432-3.049 15.786-.739 21.635 7.633 6.564 9.395 12.417 19.279 19.34 28.44 2.446 3.237 5.283 5.944 8.776 8.034 2.383 1.426 4.537 1.535 7.027.177 3.702-2.018 6.963-4.486 9.74-7.668 10.948-12.549 25.517-20.08 39.653-28.088 15.303-8.67 30.794-17.037 46.464-25.022 10.175-5.185 20.471-10.257 31.42-13.734 7.188-2.282 18.725 3.88 23.299 12.04 2.343 4.179 3.81 8.894 3.96 13.258.347 10.158 3.524 20.008 2.603 30.566M1024.867 455.828c2.576-.668 2.824 1.329 2.917 3.16.693 13.634 2.664 27.086 5.294 40.473 2.273 11.567 4.402 23.17 6.21 34.818 1.607 10.343 3.653 20.66 3.593 31.202a107.7 107.7 0 0 0 1.578 18.894c.279 1.625.394 3.435-1.505 4.357-1.516.736-2.985.337-4.191-.699-14.086-12.095-32.133-16.32-48.271-24.333-5.054-2.51-10.256-4.759-15.138-7.566-4.66-2.68-9.655-3.1-14.485-2.036-5.45 1.201-10.591.214-15.838-.438-2.564-.32-4.994-1.384-5.81-4.083-5.436-17.994-14.653-34.156-24.244-50.123-15.844-26.38-32.099-52.485-51.41-76.545-13.57-16.906-31.367-28.047-50.62-37.097-15.492-7.282-31.613-13.031-47.833-18.487-3.538-1.19-5.267-5.442-3.75-8.76 1.306-2.853 2.695-.508 3.933.077 10.142 4.794 18.955 1.6 22.784-8.325.297-.77.643-1.587.66-2.388.236-11.28-.512-22.322-8.421-31.408-3.969-4.56-5.958-10.11-6.897-15.815-2.946-17.895-5.165-35.891-5.097-54.534 2.192 4.387 2.714 9.593 2.735 14.671.044 10.368 1.71 20.557 2.879 30.78 1.03 9.019 3.085 17.663 9.263 25.27 8.334 10.261 8.358 22.906 6.257 35.241-1.04 6.115-7.896 10.287-14.313 10.328-2.491.016-4.985-.212-7.476-.352-1.227-.068-2.836-1.055-3.312.91-.407 1.683 1.011 2.205 2.325 2.666 7.032 2.464 14.113 4.8 21.07 7.46 23.017 8.802 45.606 18.483 64.404 34.996 11.845 10.405 20.861 23.256 29.828 36.066 18.116 25.879 34.865 52.618 49.419 80.674 3.576 6.894 6.78 14.025 8.739 21.63.606 2.352 2.061 3.986 4.662 4.678 5.648 1.504 10.916 2.484 16.98.427 6.907-2.343 13.35 1.675 19.29 4.926 12.7 6.953 26.105 12.25 39.478 17.65 5.927 2.395 10.881 6.366 16.182 9.78 1.188.766 2.156 2.51 3.86 1.498 1.528-.908 1.042-2.675 1.06-4.119.176-14.005-2.022-27.778-3.746-41.623-.884-7.096-2.253-14.084-3.378-21.117-1.643-10.279-3.985-20.444-5.681-30.715-1.38-8.352-2.268-16.786-3.326-25.19-.27-2.14-.36-4.302-.658-6.879M741.32 827.548c3.338-2.387 5.874-1.269 7.785 2.336 9.738 18.368 20.542 36.122 31.762 53.599 12.835 19.99 25.025 40.446 39.833 59.094 3.782 4.763 8.089 9.325 15.308 8.813 6.182-.438 10.355-3.675 11.943-10.046 1.52-6.104-.724-12.718-5.9-15.081-3.788-1.729-6.036-4.453-7.956-7.828-17.51-30.78-36.775-60.491-55.393-90.595-2.488-4.023-1.366-5.688 2.652-6.627 7.6-1.775 15.242-3.381 22.8-5.32 17.124-4.393 32.464-12.742 46.954-22.514 17.407-11.74 34.045-24.534 47.3-41.101 13.546-16.93 26.136-34.529 32.84-55.436 4.204-13.111 6.869-26.675 10.202-40.04 5.525-22.152 4.845-44.565 4.797-67.386 1.795 2.645 2.072 5.933 2.276 9.257.881 14.332.55 28.664-2.007 42.77-3.985 21.991-8.053 44.143-16.675 64.81-8.814 21.127-22.057 39.757-38.01 56.262-20.799 21.517-45.055 38.196-72.358 50.364-9.095 4.054-18.724 6.589-28.592 8.17-2.765.442-5.492 1.293-8.147 2.213-3.442 1.193-2.271 3.601-1.02 5.63 6.722 10.887 13.621 21.664 20.293 32.58a7333 7333 0 0 1 34.539 57.079c1.253 2.094 2.58 3.659 4.777 4.79 6.12 3.156 9.776 8.275 9.406 15.215-.378 7.07-4.52 12.091-11.006 14.755-6.063 2.49-11.155-.366-15.416-4.304-8.624-7.97-14.808-17.92-21.219-27.619-19.694-29.796-39.301-59.656-55.94-91.318-1.42-2.7-3.615-1.743-5.828-2.522M1044.25 620.279c1.8.435 1.294 2.101 1.376 3.516 1.53 26.255 1.546 52.553 2.265 78.832.455 16.625 1.296 33.242 2.226 49.848.23 4.099 1.09 8.267 2.359 12.176 1.564 4.813 5.748 6.864 10.493 7.058 4.22.173 7.733-1.47 9.515-5.833 1.148-2.81 1.942-5.612 2.085-8.663 1.712-36.62.35-73.172-1.636-109.754-.974-17.922-3.17-35.792-2.707-54.24 2.988 5.114 2.435 11.216 2.745 17.127 1.718 32.715 3.976 65.407 4.697 98.166.3 13.644.147 27.308-.196 40.954-.128 5.103-1.042 10.258-2.213 15.245-1.389 5.914-7.113 9.611-13.163 9.197-6.623-.454-12.064-5.4-12.7-12.552-1.16-13.079-3.112-26.093-2.983-39.29.33-33.791-3.23-67.502-2.163-101.787"/><path fill="#735427" d="M1056.662 452.074c-.884-1.335.165-2.121 1.102-2.71 12.101-7.608 17.286-20.34 23.611-32.133 14.683-27.378 2.549-53.606-21.723-68.066-15.915-9.482-33.45-12.481-51.834-9.719-3.118.469-6.272-.08-9.385.986-8.164 2.794-12.482 9.624-10.742 18.072.513 2.493-.446 4.303-1.6 6.03-11.29 16.901-12.67 36.085-10.747 55.189 1.523 15.131 12.334 29.735 31.415 33.01 2.633.451 5.266.814 7.969 2.267-11.104 1.071-21.091-2.64-28.918-10.594-11.195-11.377-15.274-25.301-12.473-41.2 1.149-6.516.535-13.19 2.194-19.771 1.619-6.42 4.313-12.184 7.63-17.733 1.787-2.988 2.48-5.948 2.341-9.433-.435-10.85 7.21-18.635 18.043-18.577 3.689.02 7.307-.193 10.85-1.298 7.258-2.264 14.266.049 21.115 1.749 8.777 2.178 17.708 4.056 25.496 9.306 17.862 12.04 29.846 27.283 28.641 50.14-.32 6.066-2.302 11.733-4.912 17.072-5.387 11.02-10.574 22.21-19.358 31.15-2.474 2.517-5.188 4.649-8.715 6.263M623.003 827.698c13.842-1.276 28.014-1.244 42.058-.192 20.815 1.56 41.531.41 62.29-.31 3.653-.128 7.313-.086 11.433.037-5.612 3.81-12.49 2.6-18.957 2.87-28.57 1.186-57.14-.47-85.714-.763-3.619-.038-7.229-.918-11.11-1.642M495.003 820.708c5.536-1.352 11.364-.72 17.14-.21 24.223 2.138 48.511 3.17 72.779 4.562 9.805.562 19.606 1.196 29.745 2.034-1.534 1.302-3.57.74-5.535.82-21.655.885-43.236-1.353-64.728-2.979-16.357-1.237-32.97-.273-49.4-4.227M947.21 586.788c1.333-2.791 3.628-.858 5.33-.414 14.94 3.9 29.83 7.303 45.42 8.356 11.452.774 22.007 6.46 30.745 14.225 4.676 4.155 9.55 7.67 15.387 10.393-5.617.91-9.897-2.169-13.422-5.907-8.318-8.822-19.161-12.861-30.144-16.65-2.252-.778-4.956-.49-7.43-.336-8.134.507-15.673-2.354-23.472-3.801-7.508-1.394-14.827-3.316-22.414-5.866M1070.529 589.626c-2.485-7.374-2.543-15.39-2.959-23.321-.724-13.804-2.018-27.53-4.106-41.194-.424-2.777-.271-5.641-.218-8.914 1.488.94 2.068 2.67 2.258 4.51 1.073 10.416 2.558 20.815 3.032 31.26.564 12.448 3.42 24.76 1.993 37.66M1063.484 512.637c-1.315-.785-1.566-2.324-1.734-3.753-2.04-17.363-4.95-34.63-5.604-52.569a19.35 19.35 0 0 1 2.637 9.613c.063 10.154 2.628 20.028 3.196 30.153.301 5.37 2.312 10.66 1.505 16.556"/><path fill="#070605" d="M606.003 377.745c19.33.258 38.16.486 56.99.752 18.742.264 36.984 3.942 55.168 8.066 24.013 5.447 47.53 12.58 70.257 21.994 15.769 6.532 31.933 13.003 44.167 25.442 10.732 10.912 19.397 23.653 28.047 36.282 16.247 23.72 32.197 47.636 44.388 73.794 6.911 14.83 10.098 30.627 10.903 46.842.901 18.145 1.013 36.285-2.303 54.305-6.378 34.657-16.678 67.52-42.067 93.571-14.575 14.956-30.63 28.214-48.47 39.046-11.72 7.116-24.852 11.413-38.243 13.997-22.892 4.416-45.952 7.667-69.39 7.935-27.324.312-54.655.1-81.927-1.039-49.095-2.05-98.227-3.513-147.207-8.045-23.55-2.179-47.096-4.39-70.48-7.795-37.815-5.505-74.406-15.334-106.325-37.366-30.457-21.024-56.238-47.046-74.936-79.117-13.103-22.473-17.787-46.842-14.474-73.422 4.223-33.89 15.71-65.191 29.637-95.746 9.725-21.335 26.935-36.34 46.68-48.602 15.121-9.39 30.374-18.384 46.991-24.995 8.376-3.333 17.192-4.19 25.83-5.334 23.416-3.101 46.977-5.089 70.454-7.746 23.983-2.714 47.94-5.668 71.9-8.584 6.419-.781 12.958-.411 19.218-2.769 8.318-3.133 11.599-8.598 9.059-17.053-1.206-4.014.883-4.112 3.673-4.298 20.652-1.371 41.306-.76 62.46-.115"/><path fill="#090806" d="M751.076 347.563c-12.138-1.014-23.455 2.703-35.164 2.89-16.419.265-32.486-1.841-48.631-4.257-15.141-2.265-30.4-3.77-45.623-5.451-6.62-.732-13.276-1.38-19.927-1.53-23.59-.53-47.303.807-69.363 9.087-10.254 3.848-19.897 3.88-29.956 4.189-31.477.964-62.965 1.576-94.448 2.32-1.666.039-3.335.083-5 .024-2.263-.082-3.622-.69-1.928-3.263 16.436-24.968 30.998-51.256 52.007-72.99 3.212-3.323 4.758-2.573 7.172.753 5.384 7.416 11.222 14.446 19.468 19.029 8.681 4.824 17.11 4.298 24.702-1.777 16.492-13.196 34.412-24.487 50.53-38.152 2.85-2.416 4-.59 5.562 1.241 7.99 9.364 15.665 19.034 25.141 26.998 3.555 2.988 7.389 5.608 11.81 7.29 11.79 4.483 21.821-.693 31.585-6.052 24.819-13.622 47.172-31.08 71.038-46.194 8.982-5.688 17.857-11.545 26.801-17.293 1.115-.716 2.326-1.308 3.546-1.832 5.539-2.38 7.834-.923 7.912 5.042.026 1.997.067 4.024-.217 5.991-3.844 26.592 1.316 52.36 7.192 78.037 1.85 8.085 6.03 15.253 11.381 21.403 4.767 5.478 1.069 10.59.09 15.495-.601 3.005-3.289-1.282-5.68-.998"/><path fill="#0f0c07" d="M1047.98 414.898c-4.318.322-8.037-2.559-12.35-.264-3.6 1.915-6.179 4.41-7.694 8.054-1.345 3.234-3.415 4.678-7.01 3.785-2.737-.679-5.622-.8-8.317-1.59-4.221-1.237-6.833-3.833-8.011-8.477-4.222-16.635.598-31.101 9.753-44.739 1.02-1.519 2.063-2.64 3.98-2.32 6.985 1.17 14.079.938 20.965 3.617 17.947 6.982 22.932 22.973 11.515 38.692-.778 1.072-1.671 2.061-2.832 3.242"/><path fill="#eea848" d="M542.111 633.25c28.028-2.313 55.56-4.81 83.126-6.829 12.91-.945 25.906-2.906 38.83-.21 11.652 2.429 22.891 5.915 31.588 14.752 3.292 3.345 4.995 7.242 5.053 12.052.118 9.618-2.49 18.531-7.35 26.6-5.308 8.815-11.078 17.39-17.18 25.677-8.62 11.706-21.543 16.232-35.003 19.34-14.005 3.233-28.33 3.882-42.629 4.647-21.787 1.166-43.577 2.823-65.402 1.492-15.44-.942-31.025-.958-46.2-4.294-20.644-4.537-40.895-10.383-59.22-21.421-5.808-3.498-12.44-5.608-17.44-10.465-10.53-10.227-12.021-22.16-5.816-35.436 6.18-13.223 15.863-19.42 30.395-19.912 24.635-.832 49.247-2.396 73.863-3.76 10.975-.607 21.936-1.473 33.385-2.234"/><path fill="#e6a348" d="M359.479 605.313c-14.984.213-25.056-6.935-26.64-19.08-2.033-15.606 8.62-27.267 25.25-26.027 11.483.857 20.758 9.797 21.61 19.765 1.068 12.483-7.118 22.94-20.22 25.342"/><path fill="#e5a347" d="M779.808 565.335c11.807.705 20.831 11.354 19.866 22.707-.557 6.539-.984 13-6.763 17.525-7.443 5.828-15.704 7.355-24.281 3.568-8.426-3.72-13.262-10.933-13.48-19.998-.22-9.135 3.9-16.664 12.18-21.436 3.767-2.17 7.805-2.687 12.478-2.366"/></svg>